<svg xmlns="http://www.w3.org/2000/svg" viewBox="0 0 26 26"><defs><style>.cls-1{fill:none;}.cls-2{fill:#8e8983;}</style></defs><g id="Слой_2" data-name="Слой 2"><g id="Слой_1-2" data-name="Слой 1"><rect class="cls-1" width="26" height="26"/><path class="cls-2" d="M0,17.89v-3.4c0-.12,0-.23,0-.35,0-1,0-2.05,0-3.07A12.44,12.44,0,0,1,.35,9a9.19,9.19,0,0,1,5-6.25,15.29,15.29,0,0,1,5-1.47A.48.48,0,0,0,10.81,1a.91.91,0,0,1,.33-.37,3.26,3.26,0,0,1,2.95-.4,1.7,1.7,0,0,1,1.1.76.53.53,0,0,0,.45.29,15.46,15.46,0,0,1,4.53,1.23,9.74,9.74,0,0,1,4.48,3.84A9.48,9.48,0,0,1,26,11c0,1.28,0,2.56,0,3.84,0,.8,0,1.6,0,2.41a4.21,4.21,0,0,1-.15,1.37,27.08,27.08,0,0,1-2,4.91,10.55,10.55,0,0,1-1.19,1.72,1.61,1.61,0,0,1-1.52.69,3.66,3.66,0,0,0-.81,0,3.73,3.73,0,0,1-1.77-.33,13.42,13.42,0,0,0-4.4-1.09A13.62,13.62,0,0,0,8,25.41a8,8,0,0,1-3.2.58,1.92,1.92,0,0,1-1.43-.62,4.11,4.11,0,0,1-.57-.68,23.43,23.43,0,0,1-2.3-5C.31,19.12.17,18.5,0,17.89Zm2.28-.61c.05.26.09.48.15.69a23.28,23.28,0,0,0,1.83,4.55A11.53,11.53,0,0,0,5,23.63a.44.44,0,0,0,.54.18c.3-.11.61-.19.91-.31a17.33,17.33,0,0,1,5.85-1.31,16.25,16.25,0,0,1,6.07.86l2.12.76a.45.45,0,0,0,.54-.16,4.44,4.44,0,0,0,.55-.76c.46-.95.91-1.9,1.32-2.87a11.3,11.3,0,0,0,.85-2.72l-.07-.05a34.89,34.89,0,0,0-7.21-2.19,20.25,20.25,0,0,0-6-.13,26.63,26.63,0,0,0-5.55,1.36C4,16.61,3.16,17,2.28,17.28Zm9.09-8.35c0-.35,0-.74.06-1.13a1.4,1.4,0,0,1,1-1.26,2.94,2.94,0,0,1,1.5-.09A2.66,2.66,0,0,1,15,7.1a1.52,1.52,0,0,0,1.67.14.63.63,0,0,0,.25-1,2.3,2.3,0,0,0-1.07-.83,6.53,6.53,0,0,0-5.13,0A2.72,2.72,0,0,0,9,7.59a12.78,12.78,0,0,0,0,2.55,2.83,2.83,0,0,0,2,2.5,6.73,6.73,0,0,0,4.16.19,3.3,3.3,0,0,0,1.75-1,.71.71,0,0,0-.33-1.27,1.46,1.46,0,0,0-1.52.29,2.45,2.45,0,0,1-1.86.65A1.57,1.57,0,0,1,11.42,10C11.4,9.63,11.39,9.3,11.37,8.93Z"/></g></g></svg>