<svg xmlns="http://www.w3.org/2000/svg" viewBox="0 0 26 26"><defs><style>.cls-1{fill:none;}.cls-2{fill:#eef5f7;}</style></defs><g id="Слой_2" data-name="Слой 2"><g id="Слой_1-2" data-name="Слой 1"><rect class="cls-1" width="26" height="26"/><path class="cls-2" d="M8.28,7.71l-1.91-2c2.4-1.88,4-4.89,7.43-5.54A6.92,6.92,0,0,1,21,3a6.29,6.29,0,0,1-.07,7.34c-.09.15-.16.3-.34.63,2-.24,1.82,1,1.81,2.3,0,3.8,0,7.59,0,11.35a35.36,35.36,0,0,1-18.66.19V17.48c0-1.68,0-3.37-.06-5,0-.78.2-1.06,1-1.15,2.67-.32,5.32-.82,8-1.1a28.19,28.19,0,0,1,3.14.24A2,2,0,0,0,17.15,10c1-1,2.12-2.1,1.91-3.75a3.74,3.74,0,0,0-5.9-2.63C11.47,4.84,9.93,6.31,8.28,7.71Zm6.36,13.93a8,8,0,0,0,0-.87c-.17-1.34-.47-2.62.22-4,.2-.4-.32-1.53-.81-1.81a2.18,2.18,0,0,0-2,.2c-.43.37-.48,1.3-.49,2,0,.87.23,1.74.28,2.62a13.36,13.36,0,0,1-.11,1.85Z"/></g></g></svg>